<svg xmlns="http://www.w3.org/2000/svg" width="1896.654" height="1284.008" viewBox="0 0 1896.654 1284.008">
  <g id="bg" transform="translate(344 -2)">
    <path id="Caminho_621" data-name="Caminho 621" d="M635.4,649.2a37.291,37.291,0,0,1-1.943-6.786c-6.782-40.12-38.748-265.681,138.825-341.39,87.446-37.286,186.551-98.808,507.185,14.914,378.426,134.229,625.723-93.215,684.02-93.215s190.437-82.029,345.9,78.3,38.865,354.216,38.865,354.216-73.843,182.7-50.524,275.916,50.524,167.787,42.751,197.615-11.659,231.173-139.913,275.916-85.5,37.286-384.761,22.371-454.718,26.1-516.9,48.472-155.459,14.914-322.578-93.215-205.983-74.572-291.486-123.043S382.123,942.717,564.36,748.458C634.8,673.364,637.154,653.92,635.4,649.2Z" transform="translate(-837.572 -199.746)" fill="#f8f8ff"/>
    <circle id="Elipse_43" data-name="Elipse 43" cx="58.453" cy="58.453" r="58.453" transform="translate(321.602 257.371)" fill="#fff"/>
    <circle id="Elipse_44" data-name="Elipse 44" cx="39.798" cy="39.798" r="39.798" transform="translate(403.743 275.754)" fill="#fff"/>
    <circle id="Elipse_45" data-name="Elipse 45" cx="32.025" cy="32.025" r="32.025" transform="translate(281.435 282.711)" fill="#fff"/>
    <circle id="Elipse_49" data-name="Elipse 49" cx="58.453" cy="58.453" r="58.453" transform="translate(833.8 368.446)" fill="#fff"/>
    <circle id="Elipse_50" data-name="Elipse 50" cx="39.798" cy="39.798" r="39.798" transform="translate(915.922 386.829)" fill="#fff"/>
    <circle id="Elipse_51" data-name="Elipse 51" cx="32.025" cy="32.025" r="32.025" transform="translate(793.634 393.786)" fill="#fff"/>
  </g>
</svg>
