<svg xmlns="http://www.w3.org/2000/svg" width="1345.848" height="1284.008" viewBox="0 0 1345.848 1284.008">
  <path id="Caminho_621" data-name="Caminho 621" d="M594.215,649.2a49.572,49.572,0,0,1-1.379-6.786c-4.812-40.12-27.5-265.681,98.509-341.39,62.051-37.286,132.375-98.808,359.894,14.914,268.528,134.229,444.007-93.215,485.374-93.215s135.132-82.029,245.445,78.3,27.578,354.216,27.578,354.216-52.4,182.7-35.851,275.916,35.851,167.787,30.336,197.615-8.273,231.173-99.281,275.916-60.672,37.286-273.023,22.371-322.664,26.1-366.788,48.472-110.312,14.914-228.9-93.215-146.164-74.572-206.836-123.043S414.489,942.717,543.8,748.458C593.788,673.364,595.456,653.92,594.215,649.2Z" transform="translate(-493.572 -201.746)" fill="#f8f8ff"/>
</svg>
