<svg id="Icons_24_image-2" data-name="Icons / 24 / image-2" xmlns="http://www.w3.org/2000/svg" width="124" height="124" viewBox="0 0 124 124">
  <g id="image-2">
    <rect id="Retângulo_299" data-name="Retângulo 299" width="124" height="124" fill="#bdbdbd" opacity="0"/>
    <path id="Caminho_397" data-name="Caminho 397" d="M80.5,3h-62A15.5,15.5,0,0,0,3,18.5v62A15.5,15.5,0,0,0,18.5,96h62A15.5,15.5,0,0,0,96,80.5v-62A15.5,15.5,0,0,0,80.5,3ZM28.834,23.667a7.75,7.75,0,1,1-7.75,7.75A7.75,7.75,0,0,1,28.834,23.667ZM85.668,79.623A5.632,5.632,0,0,1,80.5,85.668h-62L57.613,50.431a3.565,3.565,0,0,1,4.805,0l23.25,23.147Z" transform="translate(12.5 12.5)" fill="#bdbdbd"/>
  </g>
</svg>
